<?xml version="1.0" standalone="no"?>
<!DOCTYPE svg PUBLIC "-//W3C//DTD SVG 20010904//EN"
 "http://www.w3.org/TR/2001/REC-SVG-20010904/DTD/svg10.dtd">
<svg version="1.0" xmlns="http://www.w3.org/2000/svg"
 width="4166.000000pt" height="4166.000000pt" viewBox="0 0 4166.000000 4166.000000"
 preserveAspectRatio="xMidYMid meet">
<metadata>
Created by potrace 1.11, written by Peter Selinger 2001-2013
</metadata>
<g transform="translate(0.000000,4166.000000) scale(0.100000,-0.100000)"
fill="#000000" stroke="none">
<path d="M20380 41654 c-1236 -33 -2340 -149 -3465 -364 -3874 -740 -7440
-2560 -10335 -5275 -2174 -2039 -3903 -4547 -5027 -7290 -848 -2069 -1351
-4235 -1503 -6472 -34 -512 -44 -816 -44 -1423 0 -737 23 -1272 84 -1928 447
-4841 2565 -9345 6016 -12796 3465 -3465 7991 -5586 12849 -6020 670 -60 1126
-80 1875 -80 745 0 1199 19 1872 79 4853 432 9387 2556 12852 6021 2962 2962
4955 6717 5735 10804 191 1000 303 1976 352 3055 16 346 16 1382 1 1725 -41
898 -129 1750 -263 2555 -676 4067 -2530 7813 -5364 10835 -1920 2047 -4262
3705 -6820 4827 -2371 1041 -4881 1621 -7490 1733 -244 10 -1115 20 -1325 14z
m-5130 -9709 c697 -72 1296 -242 1905 -539 940 -459 1708 -1154 2259 -2045 43
-68 78 -128 79 -132 1 -5 -484 -289 -1078 -633 l-1080 -624 -30 50 c-16 28
-65 101 -108 163 -379 548 -939 956 -1585 1154 -570 175 -1210 173 -1774 -6
-744 -235 -1365 -746 -1735 -1428 -176 -324 -275 -627 -340 -1035 -28 -180
-25 -644 5 -839 50 -315 139 -597 282 -886 360 -731 1004 -1288 1769 -1529 46
-15 1074 -292 2285 -617 1211 -325 2746 -737 3411 -916 934 -251 1219 -324
1250 -320 33 4 6371 1700 6775 1813 533 150 977 407 1347 781 614 621 931
1481 863 2339 -50 619 -270 1176 -659 1664 -99 125 -320 345 -451 450 -697
557 -1596 776 -2470 600 -439 -88 -853 -273 -1213 -542 -282 -211 -562 -515
-738 -803 -29 -47 -56 -85 -61 -85 -9 0 -2137 1226 -2151 1239 -8 8 113 209
228 377 210 303 430 563 716 840 819 794 1902 1319 3046 1478 321 44 422 51
788 50 360 -1 484 -9 790 -54 1264 -186 2449 -829 3299 -1790 710 -803 1170
-1794 1325 -2860 44 -297 54 -454 55 -790 0 -418 -25 -686 -100 -1065 -357
-1814 -1619 -3343 -3324 -4027 -345 -138 -328 -133 -2530 -723 -1020 -274
-1858 -500 -1862 -504 -4 -4 55 -66 132 -139 622 -591 1104 -1353 1388 -2197
345 -1026 385 -2147 111 -3160 -383 -1415 -1283 -2603 -2529 -3337 -606 -357
-1314 -604 -2025 -707 -533 -77 -1150 -68 -1690 24 -1323 227 -2528 938 -3371
1990 -600 748 -1002 1676 -1144 2640 -44 298 -54 449 -54 805 0 358 10 509 55
805 181 1202 759 2320 1631 3154 72 68 122 124 115 126 -6 3 -196 54 -422 114
-1724 461 -3315 889 -3440 926 -323 95 -589 198 -880 340 -871 427 -1597 1059
-2133 1857 -467 695 -771 1479 -886 2283 -66 456 -73 967 -20 1425 146 1276
760 2506 1681 3366 969 906 2174 1424 3483 1498 141 8 672 -4 810 -19z"/>
<path d="M20320 19051 c-585 -159 -645 -179 -905 -307 -1112 -545 -1778 -1748
-1650 -2982 71 -674 356 -1295 818 -1778 555 -581 1350 -924 2141 -924 1069 0
2034 538 2584 1440 174 285 314 640 377 955 159 802 5 1594 -441 2267 -362
545 -908 966 -1529 1177 -166 56 -928 261 -968 260 -17 0 -210 -49 -427 -108z"/>
</g>
</svg>
